
<global>
ampeg_release=0.25
</global>

<group>
group_label=RR1
seq_length=8
seq_position=1

<region>
hivel=127
key=A#3
lovel=0
offset=347
sample=Precisionbass_staccatissimo_MP_A#3_RR1.opus
</region>

<region>
hivel=127
key=A3
lovel=0
offset=922
sample=Precisionbass_staccatissimo_MP_A3_RR1.opus
</region>

<region>
hivel=127
key=B3
lovel=0
sample=Precisionbass_staccatissimo_MP_B3_RR1.opus
</region>

<region>
hivel=127
key=C#4
lovel=0
offset=1783
sample=Precisionbass_staccatissimo_MP_C#4_RR1.opus
</region>

<region>
hikey=C4
hivel=127
lokey=C4
lovel=0
offset=431
sample=Precisionbass_staccatissimo_MP_C4_RR1.opus
</region>

<region>
hivel=127
key=D#4
lovel=0
offset=6495
sample=Precisionbass_staccatissimo_MP_D#4_RR1.opus
</region>

<region>
hivel=127
key=D4
lovel=0
offset=2194
sample=Precisionbass_staccatissimo_MP_D4_RR1.opus
</region>

<region>
hivel=127
key=G#3
lovel=0
offset=1341
sample=Precisionbass_staccatissimo_MP_G#3_RR1.opus
</region>

<region>
hivel=127
key=C#3
lovel=0
offset=8488
sample=Precisionbass_staccatissimo_MP_C#3_RR1.opus
</region>

<region>
hivel=127
key=D#3
lovel=0
offset=5301
sample=Precisionbass_staccatissimo_MP_D#3_RR1.opus
</region>

<region>
hivel=127
key=D3
lovel=0
offset=7286
sample=Precisionbass_staccatissimo_MP_D3_RR1.opus
</region>

<region>
hivel=127
key=E3
lovel=0
offset=4592
sample=Precisionbass_staccatissimo_MP_E3_RR1.opus
</region>

<region>
hivel=127
key=F#3
lovel=0
offset=524
sample=Precisionbass_staccatissimo_MP_F#3_RR1.opus
</region>

<region>
hivel=127
key=F3
lovel=0
offset=2102
sample=Precisionbass_staccatissimo_MP_F3_RR1.opus
</region>

<region>
hivel=127
key=G3
lovel=0
offset=8243
sample=Precisionbass_staccatissimo_MP_G3_RR1.opus
</region>

<region>
hivel=127
key=A#1
lovel=0
offset=7421
sample=Precisionbass_staccatissimo_MP_A#1_RR1.opus
</region>

<region>
hivel=127
key=A#2
lovel=0
offset=7087
sample=Precisionbass_staccatissimo_MP_A#2_RR1.opus
</region>

<region>
hivel=127
key=A2
lovel=0
offset=1447
sample=Precisionbass_staccatissimo_MP_A2_RR1.opus
</region>

<region>
hivel=127
key=B1
lovel=0
offset=775
sample=Precisionbass_staccatissimo_MP_B1_RR1.opus
</region>

<region>
hivel=127
key=B2
lovel=0
offset=7224
sample=Precisionbass_staccatissimo_MP_B2_RR1.opus
</region>

<region>
hivel=127
key=C#2
lovel=0
offset=1443
sample=Precisionbass_staccatissimo_MP_C#2_RR1.opus
</region>

<region>
hivel=127
key=C2
lovel=0
offset=1384
sample=Precisionbass_staccatissimo_MP_C2_RR1.opus
</region>

<region>
hivel=127
key=C3
lovel=0
offset=5977
sample=Precisionbass_staccatissimo_MP_C3_RR1.opus
</region>

<region>
hivel=127
key=D#2
lovel=0
offset=8954
sample=Precisionbass_staccatissimo_MP_D#2_RR1.opus
</region>

<region>
hivel=127
key=D2
lovel=0
offset=5826
sample=Precisionbass_staccatissimo_MP_D2_RR1.opus
</region>

<region>
hivel=127
key=E2
lovel=0
offset=2193
sample=Precisionbass_staccatissimo_MP_E2_RR1.opus
</region>

<region>
hivel=127
key=F#2
lovel=0
offset=7410
sample=Precisionbass_staccatissimo_MP_F#2_RR1.opus
</region>

<region>
hivel=127
key=F2
lovel=0
offset=1475
sample=Precisionbass_staccatissimo_MP_F2_RR1.opus
</region>

<region>
hivel=127
key=G#2
lovel=0
offset=7098
sample=Precisionbass_staccatissimo_MP_G#2_RR1.opus
</region>

<region>
hivel=127
key=G2
lovel=0
offset=643
sample=Precisionbass_staccatissimo_MP_G2_RR1.opus
</region>

<region>
hivel=127
key=A1
lovel=0
offset=178
sample=Precisionbass_staccatissimo_MP_A1_RR1.opus
</region>

<region>
hikey=E1
hivel=127
lokey=D1
lovel=0
offset=4455
pitch_keycenter=E1
sample=Precisionbass_staccatissimo_MP_E1_RR1.opus
</region>

<region>
hivel=127
key=F#1
lovel=0
offset=1532
sample=Precisionbass_staccatissimo_MP_F#1_RR1.opus
</region>

<region>
hivel=127
key=F1
lovel=0
offset=1147
sample=Precisionbass_staccatissimo_MP_F1_RR1.opus
</region>

<region>
hivel=127
key=G#1
lovel=0
offset=1267
sample=Precisionbass_staccatissimo_MP_G#1_RR1.opus
</region>

<region>
hivel=127
key=G1
lovel=0
offset=808
sample=Precisionbass_staccatissimo_MP_G1_RR1.opus
</region>
</group>

<group>
group_label=RR2
seq_length=8
seq_position=2

<region>
hivel=127
key=A#3
lovel=0
offset=8197
sample=Precisionbass_staccatissimo_MP_A#3_RR2.opus
</region>

<region>
hivel=127
key=A3
lovel=0
offset=8573
sample=Precisionbass_staccatissimo_MP_A3_RR2.opus
</region>

<region>
hivel=127
key=B3
lovel=0
offset=9235
sample=Precisionbass_staccatissimo_MP_B3_RR2.opus
</region>

<region>
hivel=127
key=C#4
lovel=0
offset=6238
sample=Precisionbass_staccatissimo_MP_C#4_RR2.opus
</region>

<region>
hikey=C4
hivel=127
lokey=C4
lovel=0
offset=256
sample=Precisionbass_staccatissimo_MP_C4_RR2.opus
</region>

<region>
hivel=127
key=D#4
lovel=0
offset=8383
sample=Precisionbass_staccatissimo_MP_D#4_RR2.opus
</region>

<region>
hivel=127
key=D4
lovel=0
offset=7774
sample=Precisionbass_staccatissimo_MP_D4_RR2.opus
</region>

<region>
hivel=127
key=G#3
lovel=0
offset=8985
sample=Precisionbass_staccatissimo_MP_G#3_RR2.opus
</region>

<region>
hivel=127
key=C#3
lovel=0
offset=7823
sample=Precisionbass_staccatissimo_MP_C#3_RR2.opus
</region>

<region>
hivel=127
key=D#3
lovel=0
offset=1467
sample=Precisionbass_staccatissimo_MP_D#3_RR2.opus
</region>

<region>
hivel=127
key=D3
lovel=0
offset=783
sample=Precisionbass_staccatissimo_MP_D3_RR2.opus
</region>

<region>
hivel=127
key=E3
lovel=0
offset=2286
sample=Precisionbass_staccatissimo_MP_E3_RR2.opus
</region>

<region>
hivel=127
key=F#3
lovel=0
offset=4031
sample=Precisionbass_staccatissimo_MP_F#3_RR2.opus
</region>

<region>
hivel=127
key=F3
lovel=0
offset=1112
sample=Precisionbass_staccatissimo_MP_F3_RR2.opus
</region>

<region>
hivel=127
key=G3
lovel=0
offset=624
sample=Precisionbass_staccatissimo_MP_G3_RR2.opus
</region>

<region>
hivel=127
key=A#1
lovel=0
offset=8824
sample=Precisionbass_staccatissimo_MP_A#1_RR2.opus
</region>

<region>
hivel=127
key=A#2
lovel=0
offset=8965
sample=Precisionbass_staccatissimo_MP_A#2_RR2.opus
</region>

<region>
hivel=127
key=A2
lovel=0
offset=8587
sample=Precisionbass_staccatissimo_MP_A2_RR2.opus
</region>

<region>
hivel=127
key=B1
lovel=0
offset=9550
sample=Precisionbass_staccatissimo_MP_B1_RR2.opus
</region>

<region>
hivel=127
key=B2
lovel=0
offset=8927
sample=Precisionbass_staccatissimo_MP_B2_RR2.opus
</region>

<region>
hivel=127
key=C#2
lovel=0
offset=9106
sample=Precisionbass_staccatissimo_MP_C#2_RR2.opus
</region>

<region>
hivel=127
key=C2
lovel=0
offset=8762
sample=Precisionbass_staccatissimo_MP_C2_RR2.opus
</region>

<region>
hivel=127
key=C3
lovel=0
offset=9499
sample=Precisionbass_staccatissimo_MP_C3_RR2.opus
</region>

<region>
hivel=127
key=D#2
lovel=0
offset=9394
sample=Precisionbass_staccatissimo_MP_D#2_RR2.opus
</region>

<region>
hivel=127
key=D2
lovel=0
offset=7937
sample=Precisionbass_staccatissimo_MP_D2_RR2.opus
</region>

<region>
hivel=127
key=E2
lovel=0
offset=8165
sample=Precisionbass_staccatissimo_MP_E2_RR2.opus
</region>

<region>
hivel=127
key=F#2
lovel=0
offset=9543
sample=Precisionbass_staccatissimo_MP_F#2_RR2.opus
</region>

<region>
hivel=127
key=F2
lovel=0
offset=664
sample=Precisionbass_staccatissimo_MP_F2_RR2.opus
</region>

<region>
hivel=127
key=G#2
lovel=0
offset=9714
sample=Precisionbass_staccatissimo_MP_G#2_RR2.opus
</region>

<region>
hivel=127
key=G2
lovel=0
offset=1275
sample=Precisionbass_staccatissimo_MP_G2_RR2.opus
</region>

<region>
hivel=127
key=A1
lovel=0
offset=8842
sample=Precisionbass_staccatissimo_MP_A1_RR2.opus
</region>

<region>
hikey=E1
hivel=127
lokey=D1
lovel=0
offset=2642
pitch_keycenter=E1
sample=Precisionbass_staccatissimo_MP_E1_RR2.opus
</region>

<region>
hivel=127
key=F#1
lovel=0
offset=7574
sample=Precisionbass_staccatissimo_MP_F#1_RR2.opus
</region>

<region>
hivel=127
key=F1
lovel=0
offset=7507
sample=Precisionbass_staccatissimo_MP_F1_RR2.opus
</region>

<region>
hivel=127
key=G#1
lovel=0
offset=922
sample=Precisionbass_staccatissimo_MP_G#1_RR2.opus
</region>

<region>
hivel=127
key=G1
lovel=0
offset=995
sample=Precisionbass_staccatissimo_MP_G1_RR2.opus
</region>
</group>

<group>
group_label=RR3
seq_length=8
seq_position=3

<region>
hivel=127
key=A#3
lovel=0
offset=6774
sample=Precisionbass_staccatissimo_MP_A#3_RR3.opus
</region>

<region>
hivel=127
key=A3
lovel=0
offset=7594
sample=Precisionbass_staccatissimo_MP_A3_RR3.opus
</region>

<region>
hivel=127
key=B3
lovel=0
offset=7665
sample=Precisionbass_staccatissimo_MP_B3_RR3.opus
</region>

<region>
hivel=127
key=C#4
lovel=0
offset=7653
sample=Precisionbass_staccatissimo_MP_C#4_RR3.opus
</region>

<region>
hikey=C4
hivel=127
lokey=C4
lovel=0
offset=7379
sample=Precisionbass_staccatissimo_MP_C4_RR3.opus
</region>

<region>
hivel=127
key=D#4
lovel=0
offset=8730
sample=Precisionbass_staccatissimo_MP_D#4_RR3.opus
</region>

<region>
hivel=127
key=D4
lovel=0
offset=8775
sample=Precisionbass_staccatissimo_MP_D4_RR3.opus
</region>

<region>
hivel=127
key=G#3
lovel=0
offset=8248
sample=Precisionbass_staccatissimo_MP_G#3_RR3.opus
</region>

<region>
hivel=127
key=C#3
lovel=0
offset=8302
sample=Precisionbass_staccatissimo_MP_C#3_RR3.opus
</region>

<region>
hivel=127
key=D#3
lovel=0
offset=8896
sample=Precisionbass_staccatissimo_MP_D#3_RR3.opus
</region>

<region>
hivel=127
key=D3
lovel=0
offset=9012
sample=Precisionbass_staccatissimo_MP_D3_RR3.opus
</region>

<region>
hivel=127
key=E3
lovel=0
offset=7569
sample=Precisionbass_staccatissimo_MP_E3_RR3.opus
</region>

<region>
hivel=127
key=F#3
lovel=0
offset=4191
sample=Precisionbass_staccatissimo_MP_F#3_RR3.opus
</region>

<region>
hivel=127
key=F3
lovel=0
offset=3774
sample=Precisionbass_staccatissimo_MP_F3_RR3.opus
</region>

<region>
hivel=127
key=G3
lovel=0
offset=2831
sample=Precisionbass_staccatissimo_MP_G3_RR3.opus
</region>

<region>
hivel=127
key=A#1
lovel=0
offset=7565
sample=Precisionbass_staccatissimo_MP_A#1_RR3.opus
</region>

<region>
hivel=127
key=A#2
lovel=0
offset=7241
sample=Precisionbass_staccatissimo_MP_A#2_RR3.opus
</region>

<region>
hivel=127
key=A1
lovel=0
offset=6288
sample=Precisionbass_staccatissimo_MP_A1_RR3.opus
</region>

<region>
hivel=127
key=A2
lovel=0
offset=6006
sample=Precisionbass_staccatissimo_MP_A2_RR3.opus
</region>

<region>
hivel=127
key=B1
lovel=0
offset=8305
sample=Precisionbass_staccatissimo_MP_B1_RR3.opus
</region>

<region>
hivel=127
key=B2
lovel=0
offset=6900
sample=Precisionbass_staccatissimo_MP_B2_RR3.opus
</region>

<region>
hivel=127
key=C#2
lovel=0
offset=5884
sample=Precisionbass_staccatissimo_MP_C#2_RR3.opus
</region>

<region>
hivel=127
key=C2
lovel=0
offset=6710
sample=Precisionbass_staccatissimo_MP_C2_RR3.opus
</region>

<region>
hivel=127
key=C3
lovel=0
offset=8098
sample=Precisionbass_staccatissimo_MP_C3_RR3.opus
</region>

<region>
hivel=127
key=D#2
lovel=0
offset=7735
sample=Precisionbass_staccatissimo_MP_D#2_RR3.opus
</region>

<region>
hivel=127
key=D2
lovel=0
offset=6438
sample=Precisionbass_staccatissimo_MP_D2_RR3.opus
</region>

<region>
hivel=127
key=E2
lovel=0
offset=7097
sample=Precisionbass_staccatissimo_MP_E2_RR3.opus
</region>

<region>
hivel=127
key=F#2
lovel=0
offset=1367
sample=Precisionbass_staccatissimo_MP_F#2_RR3.opus
</region>

<region>
hivel=127
key=F2
lovel=0
offset=7381
sample=Precisionbass_staccatissimo_MP_F2_RR3.opus
</region>

<region>
hivel=127
key=G#2
lovel=0
offset=6979
sample=Precisionbass_staccatissimo_MP_G#2_RR3.opus
</region>

<region>
hivel=127
key=G2
lovel=0
offset=1002
sample=Precisionbass_staccatissimo_MP_G2_RR3.opus
</region>

<region>
hikey=E1
hivel=127
lokey=D1
lovel=0
offset=1952
pitch_keycenter=E1
sample=Precisionbass_staccatissimo_MP_E1_RR3.opus
</region>

<region>
hivel=127
key=F#1
lovel=0
offset=6991
sample=Precisionbass_staccatissimo_MP_F#1_RR3.opus
</region>

<region>
hivel=127
key=F1
lovel=0
offset=6635
sample=Precisionbass_staccatissimo_MP_F1_RR3.opus
</region>

<region>
hivel=127
key=G#1
lovel=0
offset=7550
sample=Precisionbass_staccatissimo_MP_G#1_RR3.opus
</region>

<region>
hivel=127
key=G1
lovel=0
offset=7478
sample=Precisionbass_staccatissimo_MP_G1_RR3.opus
</region>
</group>

<group>
group_label=RR4
seq_length=8
seq_position=4

<region>
hivel=127
key=A#3
lovel=0
offset=7032
sample=Precisionbass_staccatissimo_MP_A#3_RR4.opus
</region>

<region>
hivel=127
key=A3
lovel=0
offset=3100
sample=Precisionbass_staccatissimo_MP_A3_RR4.opus
</region>

<region>
hivel=127
key=B3
lovel=0
offset=8415
sample=Precisionbass_staccatissimo_MP_B3_RR4.opus
</region>

<region>
hivel=127
key=C#4
lovel=0
offset=8489
sample=Precisionbass_staccatissimo_MP_C#4_RR4.opus
</region>

<region>
hikey=C4
hivel=127
lokey=C4
lovel=0
offset=590
sample=Precisionbass_staccatissimo_MP_C4_RR4.opus
</region>

<region>
hivel=127
key=D#4
lovel=0
offset=7948
sample=Precisionbass_staccatissimo_MP_D#4_RR4.opus
</region>

<region>
hivel=127
key=D4
lovel=0
offset=9379
sample=Precisionbass_staccatissimo_MP_D4_RR4.opus
</region>

<region>
hivel=127
key=G#3
lovel=0
offset=8152
sample=Precisionbass_staccatissimo_MP_G#3_RR4.opus
</region>

<region>
hivel=127
key=C#3
lovel=0
offset=7226
sample=Precisionbass_staccatissimo_MP_C#3_RR4.opus
</region>

<region>
hivel=127
key=D#3
lovel=0
offset=8246
sample=Precisionbass_staccatissimo_MP_D#3_RR4.opus
</region>

<region>
hivel=127
key=D3
lovel=0
offset=466
sample=Precisionbass_staccatissimo_MP_D3_RR4.opus
</region>

<region>
hivel=127
key=E3
lovel=0
offset=7896
sample=Precisionbass_staccatissimo_MP_E3_RR4.opus
</region>

<region>
hivel=127
key=F#3
lovel=0
offset=1245
sample=Precisionbass_staccatissimo_MP_F#3_RR4.opus
</region>

<region>
hivel=127
key=F3
lovel=0
offset=330
sample=Precisionbass_staccatissimo_MP_F3_RR4.opus
</region>

<region>
hivel=127
key=G3
lovel=0
sample=Precisionbass_staccatissimo_MP_G3_RR4.opus
</region>

<region>
hivel=127
key=A#1
lovel=0
offset=8721
sample=Precisionbass_staccatissimo_MP_A#1_RR4.opus
</region>

<region>
hivel=127
key=A#2
lovel=0
offset=6908
sample=Precisionbass_staccatissimo_MP_A#2_RR4.opus
</region>

<region>
hivel=127
key=A1
lovel=0
offset=7112
sample=Precisionbass_staccatissimo_MP_A1_RR4.opus
</region>

<region>
hivel=127
key=A2
lovel=0
offset=7477
sample=Precisionbass_staccatissimo_MP_A2_RR4.opus
</region>

<region>
hivel=127
key=B1
lovel=0
offset=7924
sample=Precisionbass_staccatissimo_MP_B1_RR4.opus
</region>

<region>
hivel=127
key=B2
lovel=0
offset=8783
sample=Precisionbass_staccatissimo_MP_B2_RR4.opus
</region>

<region>
hivel=127
key=C#2
lovel=0
offset=690
sample=Precisionbass_staccatissimo_MP_C#2_RR4.opus
</region>

<region>
hivel=127
key=C2
lovel=0
offset=7240
sample=Precisionbass_staccatissimo_MP_C2_RR4.opus
</region>

<region>
hivel=127
key=C3
lovel=0
offset=7475
sample=Precisionbass_staccatissimo_MP_C3_RR4.opus
</region>

<region>
hivel=127
key=D#2
lovel=0
offset=7801
sample=Precisionbass_staccatissimo_MP_D#2_RR4.opus
</region>

<region>
hivel=127
key=D2
lovel=0
offset=3965
sample=Precisionbass_staccatissimo_MP_D2_RR4.opus
</region>

<region>
hivel=127
key=E2
lovel=0
offset=7087
sample=Precisionbass_staccatissimo_MP_E2_RR4.opus
</region>

<region>
hivel=127
key=F#2
lovel=0
offset=5149
sample=Precisionbass_staccatissimo_MP_F#2_RR4.opus
</region>

<region>
hivel=127
key=F2
lovel=0
offset=514
sample=Precisionbass_staccatissimo_MP_F2_RR4.opus
</region>

<region>
hivel=127
key=G#2
lovel=0
offset=9113
sample=Precisionbass_staccatissimo_MP_G#2_RR4.opus
</region>

<region>
hivel=127
key=G2
lovel=0
offset=8706
sample=Precisionbass_staccatissimo_MP_G2_RR4.opus
</region>

<region>
hikey=E1
hivel=127
lokey=D1
lovel=0
offset=1509
pitch_keycenter=E1
sample=Precisionbass_staccatissimo_MP_E1_RR4.opus
</region>

<region>
hivel=127
key=F#1
lovel=0
offset=7113
sample=Precisionbass_staccatissimo_MP_F#1_RR4.opus
</region>

<region>
hivel=127
key=F1
lovel=0
offset=6752
sample=Precisionbass_staccatissimo_MP_F1_RR4.opus
</region>

<region>
hivel=127
key=G#1
lovel=0
offset=1872
sample=Precisionbass_staccatissimo_MP_G#1_RR4.opus
</region>

<region>
hivel=127
key=G1
lovel=0
offset=7689
sample=Precisionbass_staccatissimo_MP_G1_RR4.opus
</region>
</group>

<group>
group_label=RR5
seq_length=8
seq_position=5

<region>
hivel=127
key=A#3
lovel=0
offset=6299
sample=Precisionbass_staccatissimo_MP_A#3_RR5.opus
</region>

<region>
hivel=127
key=A3
lovel=0
offset=7642
sample=Precisionbass_staccatissimo_MP_A3_RR5.opus
</region>

<region>
hivel=127
key=B3
lovel=0
offset=7642
sample=Precisionbass_staccatissimo_MP_B3_RR5.opus
</region>

<region>
hivel=127
key=C#4
lovel=0
offset=8521
sample=Precisionbass_staccatissimo_MP_C#4_RR5.opus
</region>

<region>
hikey=C4
hivel=127
lokey=C4
lovel=0
offset=8461
sample=Precisionbass_staccatissimo_MP_C4_RR5.opus
</region>

<region>
hivel=127
key=D#4
lovel=0
offset=9188
sample=Precisionbass_staccatissimo_MP_D#4_RR5.opus
</region>

<region>
hivel=127
key=D4
lovel=0
offset=7019
sample=Precisionbass_staccatissimo_MP_D4_RR5.opus
</region>

<region>
hivel=127
key=G#3
lovel=0
offset=6541
sample=Precisionbass_staccatissimo_MP_G#3_RR5.opus
</region>

<region>
hivel=127
key=C#3
lovel=0
offset=7852
sample=Precisionbass_staccatissimo_MP_C#3_RR5.opus
</region>

<region>
hivel=127
key=D#3
lovel=0
offset=7751
sample=Precisionbass_staccatissimo_MP_D#3_RR5.opus
</region>

<region>
hivel=127
key=D3
lovel=0
offset=8606
sample=Precisionbass_staccatissimo_MP_D3_RR5.opus
</region>

<region>
hivel=127
key=E3
lovel=0
offset=8348
sample=Precisionbass_staccatissimo_MP_E3_RR5.opus
</region>

<region>
hivel=127
key=F#3
lovel=0
offset=7516
sample=Precisionbass_staccatissimo_MP_F#3_RR5.opus
</region>

<region>
hivel=127
key=F3
lovel=0
offset=6939
sample=Precisionbass_staccatissimo_MP_F3_RR5.opus
</region>

<region>
hivel=127
key=G3
lovel=0
sample=Precisionbass_staccatissimo_MP_G3_RR5.opus
</region>

<region>
hivel=127
key=A#1
lovel=0
offset=6914
sample=Precisionbass_staccatissimo_MP_A#1_RR5.opus
</region>

<region>
hivel=127
key=A#2
lovel=0
offset=7680
sample=Precisionbass_staccatissimo_MP_A#2_RR5.opus
</region>

<region>
hivel=127
key=A1
lovel=0
offset=4558
sample=Precisionbass_staccatissimo_MP_A1_RR5.opus
</region>

<region>
hivel=127
key=A2
lovel=0
offset=7062
sample=Precisionbass_staccatissimo_MP_A2_RR5.opus
</region>

<region>
hivel=127
key=B1
lovel=0
offset=7498
sample=Precisionbass_staccatissimo_MP_B1_RR5.opus
</region>

<region>
hivel=127
key=B2
lovel=0
offset=7640
sample=Precisionbass_staccatissimo_MP_B2_RR5.opus
</region>

<region>
hivel=127
key=C#2
lovel=0
offset=6354
sample=Precisionbass_staccatissimo_MP_C#2_RR5.opus
</region>

<region>
hivel=127
key=C2
lovel=0
offset=6699
sample=Precisionbass_staccatissimo_MP_C2_RR5.opus
</region>

<region>
hivel=127
key=C3
lovel=0
offset=7211
sample=Precisionbass_staccatissimo_MP_C3_RR5.opus
</region>

<region>
hivel=127
key=D#2
lovel=0
offset=7927
sample=Precisionbass_staccatissimo_MP_D#2_RR5.opus
</region>

<region>
hivel=127
key=D2
lovel=0
offset=6982
sample=Precisionbass_staccatissimo_MP_D2_RR5.opus
</region>

<region>
hivel=127
key=E2
lovel=0
offset=7830
sample=Precisionbass_staccatissimo_MP_E2_RR5.opus
</region>

<region>
hivel=127
key=F#2
lovel=0
offset=7109
sample=Precisionbass_staccatissimo_MP_F#2_RR5.opus
</region>

<region>
hivel=127
key=F2
lovel=0
offset=6179
sample=Precisionbass_staccatissimo_MP_F2_RR5.opus
</region>

<region>
hivel=127
key=G#2
lovel=0
offset=6882
sample=Precisionbass_staccatissimo_MP_G#2_RR5.opus
</region>

<region>
hivel=127
key=G2
lovel=0
offset=2465
sample=Precisionbass_staccatissimo_MP_G2_RR5.opus
</region>

<region>
hikey=E1
hivel=127
lokey=D1
lovel=0
offset=2386
pitch_keycenter=E1
sample=Precisionbass_staccatissimo_MP_E1_RR5.opus
</region>

<region>
hivel=127
key=F#1
lovel=0
offset=6657
sample=Precisionbass_staccatissimo_MP_F#1_RR5.opus
</region>

<region>
hivel=127
key=F1
lovel=0
offset=6211
sample=Precisionbass_staccatissimo_MP_F1_RR5.opus
</region>

<region>
hivel=127
key=G#1
lovel=0
offset=6956
sample=Precisionbass_staccatissimo_MP_G#1_RR5.opus
</region>

<region>
hivel=127
key=G1
lovel=0
offset=7304
sample=Precisionbass_staccatissimo_MP_G1_RR5.opus
</region>
</group>

<group>
group_label=RR6
seq_length=8
seq_position=6

<region>
hivel=127
key=A#3
lovel=0
offset=8852
sample=Precisionbass_staccatissimo_MP_A#3_RR6.opus
</region>

<region>
hivel=127
key=A3
lovel=0
offset=8567
sample=Precisionbass_staccatissimo_MP_A3_RR6.opus
</region>

<region>
hivel=127
key=B3
lovel=0
offset=9302
sample=Precisionbass_staccatissimo_MP_B3_RR6.opus
</region>

<region>
hivel=127
key=C#4
lovel=0
offset=6391
sample=Precisionbass_staccatissimo_MP_C#4_RR6.opus
</region>

<region>
hikey=C4
hivel=127
lokey=C4
lovel=0
offset=7162
sample=Precisionbass_staccatissimo_MP_C4_RR6.opus
</region>

<region>
hivel=127
key=D#4
lovel=0
offset=7869
sample=Precisionbass_staccatissimo_MP_D#4_RR6.opus
</region>

<region>
hivel=127
key=D4
lovel=0
offset=8719
sample=Precisionbass_staccatissimo_MP_D4_RR6.opus
</region>

<region>
hivel=127
key=G#3
lovel=0
offset=1532
sample=Precisionbass_staccatissimo_MP_G#3_RR6.opus
</region>

<region>
hivel=127
key=C#3
lovel=0
offset=7357
sample=Precisionbass_staccatissimo_MP_C#3_RR6.opus
</region>

<region>
hivel=127
key=D#3
lovel=0
offset=7886
sample=Precisionbass_staccatissimo_MP_D#3_RR6.opus
</region>

<region>
hivel=127
key=D3
lovel=0
offset=470
sample=Precisionbass_staccatissimo_MP_D3_RR6.opus
</region>

<region>
hivel=127
key=E3
lovel=0
offset=6600
sample=Precisionbass_staccatissimo_MP_E3_RR6.opus
</region>

<region>
hivel=127
key=F#3
lovel=0
offset=7563
sample=Precisionbass_staccatissimo_MP_F#3_RR6.opus
</region>

<region>
hivel=127
key=F3
lovel=0
offset=721
sample=Precisionbass_staccatissimo_MP_F3_RR6.opus
</region>

<region>
hivel=127
key=G3
lovel=0
offset=69
sample=Precisionbass_staccatissimo_MP_G3_RR6.opus
</region>

<region>
hivel=127
key=A#1
lovel=0
offset=7929
sample=Precisionbass_staccatissimo_MP_A#1_RR6.opus
</region>

<region>
hivel=127
key=A#2
lovel=0
offset=7432
sample=Precisionbass_staccatissimo_MP_A#2_RR6.opus
</region>

<region>
hivel=127
key=A1
lovel=0
offset=6515
sample=Precisionbass_staccatissimo_MP_A1_RR6.opus
</region>

<region>
hivel=127
key=A2
lovel=0
offset=9132
sample=Precisionbass_staccatissimo_MP_A2_RR6.opus
</region>

<region>
hivel=127
key=B1
lovel=0
offset=8120
sample=Precisionbass_staccatissimo_MP_B1_RR6.opus
</region>

<region>
hivel=127
key=B2
lovel=0
offset=8020
sample=Precisionbass_staccatissimo_MP_B2_RR6.opus
</region>

<region>
hivel=127
key=C#2
lovel=0
offset=7668
sample=Precisionbass_staccatissimo_MP_C#2_RR6.opus
</region>

<region>
hivel=127
key=C2
lovel=0
offset=6886
sample=Precisionbass_staccatissimo_MP_C2_RR6.opus
</region>

<region>
hivel=127
key=C3
lovel=0
offset=6982
sample=Precisionbass_staccatissimo_MP_C3_RR6.opus
</region>

<region>
hivel=127
key=D#2
lovel=0
offset=8445
sample=Precisionbass_staccatissimo_MP_D#2_RR6.opus
</region>

<region>
hivel=127
key=D2
lovel=0
offset=7541
sample=Precisionbass_staccatissimo_MP_D2_RR6.opus
</region>

<region>
hivel=127
key=E2
lovel=0
offset=7398
sample=Precisionbass_staccatissimo_MP_E2_RR6.opus
</region>

<region>
hivel=127
key=F#2
lovel=0
offset=8769
sample=Precisionbass_staccatissimo_MP_F#2_RR6.opus
</region>

<region>
hivel=127
key=F2
lovel=0
offset=747
sample=Precisionbass_staccatissimo_MP_F2_RR6.opus
</region>

<region>
hivel=127
key=G#2
lovel=0
offset=7547
sample=Precisionbass_staccatissimo_MP_G#2_RR6.opus
</region>

<region>
hivel=127
key=G2
lovel=0
offset=983
sample=Precisionbass_staccatissimo_MP_G2_RR6.opus
</region>

<region>
hikey=E1
hivel=127
lokey=D1
lovel=0
offset=2803
pitch_keycenter=E1
sample=Precisionbass_staccatissimo_MP_E1_RR6.opus
</region>

<region>
hivel=127
key=F#1
lovel=0
offset=8512
sample=Precisionbass_staccatissimo_MP_F#1_RR6.opus
</region>

<region>
hivel=127
key=F1
lovel=0
offset=6452
sample=Precisionbass_staccatissimo_MP_F1_RR6.opus
</region>

<region>
hivel=127
key=G#1
lovel=0
offset=7508
sample=Precisionbass_staccatissimo_MP_G#1_RR6.opus
</region>

<region>
hivel=127
key=G1
lovel=0
offset=7748
sample=Precisionbass_staccatissimo_MP_G1_RR6.opus
</region>
</group>

<group>
group_label=RR7
seq_length=8
seq_position=7

<region>
hivel=127
key=A#3
lovel=0
offset=240
sample=Precisionbass_staccatissimo_MP_A#3_RR7.opus
</region>

<region>
hivel=127
key=A3
lovel=0
offset=226
sample=Precisionbass_staccatissimo_MP_A3_RR7.opus
</region>

<region>
hivel=127
key=B3
lovel=0
offset=7988
sample=Precisionbass_staccatissimo_MP_B3_RR7.opus
</region>

<region>
hivel=127
key=C#4
lovel=0
offset=7672
sample=Precisionbass_staccatissimo_MP_C#4_RR7.opus
</region>

<region>
hikey=C4
hivel=127
lokey=C4
lovel=0
offset=8188
sample=Precisionbass_staccatissimo_MP_C4_RR7.opus
</region>

<region>
hivel=127
key=D#4
lovel=0
offset=9753
sample=Precisionbass_staccatissimo_MP_D#4_RR7.opus
</region>

<region>
hivel=127
key=D4
lovel=0
offset=7268
sample=Precisionbass_staccatissimo_MP_D4_RR7.opus
</region>

<region>
hivel=127
key=G#3
lovel=0
offset=7072
sample=Precisionbass_staccatissimo_MP_G#3_RR7.opus
</region>

<region>
hivel=127
key=C#3
lovel=0
offset=1811
sample=Precisionbass_staccatissimo_MP_C#3_RR7.opus
</region>

<region>
hivel=127
key=D#3
lovel=0
offset=7128
sample=Precisionbass_staccatissimo_MP_D#3_RR7.opus
</region>

<region>
hivel=127
key=D3
lovel=0
offset=1384
sample=Precisionbass_staccatissimo_MP_D3_RR7.opus
</region>

<region>
hivel=127
key=E3
lovel=0
offset=6984
sample=Precisionbass_staccatissimo_MP_E3_RR7.opus
</region>

<region>
hivel=127
key=F#3
lovel=0
offset=719
sample=Precisionbass_staccatissimo_MP_F#3_RR7.opus
</region>

<region>
hivel=127
key=F3
lovel=0
offset=451
sample=Precisionbass_staccatissimo_MP_F3_RR7.opus
</region>

<region>
hivel=127
key=G3
lovel=0
offset=8383
sample=Precisionbass_staccatissimo_MP_G3_RR7.opus
</region>

<region>
hivel=127
key=A#1
lovel=0
offset=7841
sample=Precisionbass_staccatissimo_MP_A#1_RR7.opus
</region>

<region>
hivel=127
key=A#2
lovel=0
offset=8292
sample=Precisionbass_staccatissimo_MP_A#2_RR7.opus
</region>

<region>
hivel=127
key=A1
lovel=0
offset=7885
sample=Precisionbass_staccatissimo_MP_A1_RR7.opus
</region>

<region>
hivel=127
key=A2
lovel=0
offset=8433
sample=Precisionbass_staccatissimo_MP_A2_RR7.opus
</region>

<region>
hivel=127
key=B1
lovel=0
offset=7980
sample=Precisionbass_staccatissimo_MP_B1_RR7.opus
</region>

<region>
hivel=127
key=B2
lovel=0
offset=7090
sample=Precisionbass_staccatissimo_MP_B2_RR7.opus
</region>

<region>
hivel=127
key=C#2
lovel=0
offset=7211
sample=Precisionbass_staccatissimo_MP_C#2_RR7.opus
</region>

<region>
hivel=127
key=C2
lovel=0
offset=8429
sample=Precisionbass_staccatissimo_MP_C2_RR7.opus
</region>

<region>
hivel=127
key=C3
lovel=0
offset=2158
sample=Precisionbass_staccatissimo_MP_C3_RR7.opus
</region>

<region>
hivel=127
key=D#2
lovel=0
offset=7655
sample=Precisionbass_staccatissimo_MP_D#2_RR7.opus
</region>

<region>
hivel=127
key=D2
lovel=0
offset=2143
sample=Precisionbass_staccatissimo_MP_D2_RR7.opus
</region>

<region>
hivel=127
key=E2
lovel=0
offset=7922
sample=Precisionbass_staccatissimo_MP_E2_RR7.opus
</region>

<region>
hivel=127
key=F#2
lovel=0
offset=8479
sample=Precisionbass_staccatissimo_MP_F#2_RR7.opus
</region>

<region>
hivel=127
key=F2
lovel=0
offset=8358
sample=Precisionbass_staccatissimo_MP_F2_RR7.opus
</region>

<region>
hivel=127
key=G#2
lovel=0
offset=6584
sample=Precisionbass_staccatissimo_MP_G#2_RR7.opus
</region>

<region>
hivel=127
key=G2
lovel=0
offset=613
sample=Precisionbass_staccatissimo_MP_G2_RR7.opus
</region>

<region>
hikey=E1
hivel=127
lokey=D1
lovel=0
offset=6760
pitch_keycenter=E1
sample=Precisionbass_staccatissimo_MP_E1_RR7.opus
</region>

<region>
hivel=127
key=F#1
lovel=0
offset=7975
sample=Precisionbass_staccatissimo_MP_F#1_RR7.opus
</region>

<region>
hivel=127
key=F1
lovel=0
offset=5985
sample=Precisionbass_staccatissimo_MP_F1_RR7.opus
</region>

<region>
hivel=127
key=G#1
lovel=0
offset=944
sample=Precisionbass_staccatissimo_MP_G#1_RR7.opus
</region>

<region>
hivel=127
key=G1
lovel=0
offset=7596
sample=Precisionbass_staccatissimo_MP_G1_RR7.opus
</region>
</group>

<group>
group_label=RR8
seq_length=8
seq_position=8

<region>
hivel=127
key=A#3
lovel=0
offset=8107
sample=Precisionbass_staccatissimo_MP_A#3_RR8.opus
</region>

<region>
hivel=127
key=A3
lovel=0
offset=104
sample=Precisionbass_staccatissimo_MP_A3_RR8.opus
</region>

<region>
hivel=127
key=B3
lovel=0
sample=Precisionbass_staccatissimo_MP_B3_RR8.opus
</region>

<region>
hivel=127
key=C#4
lovel=0
offset=7224
sample=Precisionbass_staccatissimo_MP_C#4_RR8.opus
</region>

<region>
hikey=C4
hivel=127
lokey=C4
lovel=0
offset=8763
sample=Precisionbass_staccatissimo_MP_C4_RR8.opus
</region>

<region>
hivel=127
key=D#4
lovel=0
offset=7575
sample=Precisionbass_staccatissimo_MP_D#4_RR8.opus
</region>

<region>
hivel=127
key=D4
lovel=0
offset=7956
sample=Precisionbass_staccatissimo_MP_D4_RR8.opus
</region>

<region>
hivel=127
key=G#3
lovel=0
offset=2576
sample=Precisionbass_staccatissimo_MP_G#3_RR8.opus
</region>

<region>
hivel=127
key=C#3
lovel=0
offset=7821
sample=Precisionbass_staccatissimo_MP_C#3_RR8.opus
</region>

<region>
hivel=127
key=D#3
lovel=0
offset=8134
sample=Precisionbass_staccatissimo_MP_D#3_RR8.opus
</region>

<region>
hivel=127
key=D3
lovel=0
offset=379
sample=Precisionbass_staccatissimo_MP_D3_RR8.opus
</region>

<region>
hivel=127
key=E3
lovel=0
offset=5816
sample=Precisionbass_staccatissimo_MP_E3_RR8.opus
</region>

<region>
hivel=127
key=F#3
lovel=0
offset=7247
sample=Precisionbass_staccatissimo_MP_F#3_RR8.opus
</region>

<region>
hivel=127
key=F3
lovel=0
offset=612
sample=Precisionbass_staccatissimo_MP_F3_RR8.opus
</region>

<region>
hivel=127
key=G3
lovel=0
offset=8574
sample=Precisionbass_staccatissimo_MP_G3_RR8.opus
</region>

<region>
hivel=127
key=A#1
lovel=0
offset=7165
sample=Precisionbass_staccatissimo_MP_A#1_RR8.opus
</region>

<region>
hivel=127
key=A#2
lovel=0
offset=7664
sample=Precisionbass_staccatissimo_MP_A#2_RR8.opus
</region>

<region>
hivel=127
key=A1
lovel=0
offset=8096
sample=Precisionbass_staccatissimo_MP_A1_RR8.opus
</region>

<region>
hivel=127
key=A2
lovel=0
offset=6893
sample=Precisionbass_staccatissimo_MP_A2_RR8.opus
</region>

<region>
hivel=127
key=B1
lovel=0
offset=6742
sample=Precisionbass_staccatissimo_MP_B1_RR8.opus
</region>

<region>
hivel=127
key=B2
lovel=0
offset=8256
sample=Precisionbass_staccatissimo_MP_B2_RR8.opus
</region>

<region>
hivel=127
key=C#2
lovel=0
offset=3152
sample=Precisionbass_staccatissimo_MP_C#2_RR8.opus
</region>

<region>
hivel=127
key=C2
lovel=0
offset=7641
sample=Precisionbass_staccatissimo_MP_C2_RR8.opus
</region>

<region>
hivel=127
key=C3
lovel=0
offset=757
sample=Precisionbass_staccatissimo_MP_C3_RR8.opus
</region>

<region>
hivel=127
key=D#2
lovel=0
offset=10224
sample=Precisionbass_staccatissimo_MP_D#2_RR8.opus
</region>

<region>
hivel=127
key=D2
lovel=0
offset=2357
sample=Precisionbass_staccatissimo_MP_D2_RR8.opus
</region>

<region>
hivel=127
key=E2
lovel=0
offset=7957
sample=Precisionbass_staccatissimo_MP_E2_RR8.opus
</region>

<region>
hivel=127
key=F#2
lovel=0
offset=6746
sample=Precisionbass_staccatissimo_MP_F#2_RR8.opus
</region>

<region>
hivel=127
key=F2
lovel=0
offset=7822
sample=Precisionbass_staccatissimo_MP_F2_RR8.opus
</region>

<region>
hivel=127
key=G#2
lovel=0
offset=8606
sample=Precisionbass_staccatissimo_MP_G#2_RR8.opus
</region>

<region>
hivel=127
key=G2
lovel=0
offset=449
sample=Precisionbass_staccatissimo_MP_G2_RR8.opus
</region>

<region>
hikey=E1
hivel=127
lokey=D1
lovel=0
offset=1269
pitch_keycenter=E1
sample=Precisionbass_staccatissimo_MP_E1_RR8.opus
</region>

<region>
hivel=127
key=F#1
lovel=0
offset=8636
sample=Precisionbass_staccatissimo_MP_F#1_RR8.opus
</region>

<region>
hivel=127
key=F1
lovel=0
offset=6932
sample=Precisionbass_staccatissimo_MP_F1_RR8.opus
</region>

<region>
hivel=127
key=G#1
lovel=0
offset=6945
sample=Precisionbass_staccatissimo_MP_G#1_RR8.opus
</region>

<region>
hivel=127
key=G1
lovel=0
offset=7838
sample=Precisionbass_staccatissimo_MP_G1_RR8.opus
</region>
</group>